<?xml version="1.0" encoding="utf-8"?>
<!-- Generator: Adobe Illustrator 16.0.0, SVG Export Plug-In . SVG Version: 6.00 Build 0)  -->
<!DOCTYPE svg PUBLIC "-//W3C//DTD SVG 1.1//EN" "http://www.w3.org/Graphics/SVG/1.1/DTD/svg11.dtd">
<svg version="1.1" id="Layer_1" xmlns="http://www.w3.org/2000/svg" xmlns:xlink="http://www.w3.org/1999/xlink" x="0px" y="0px"
	 width="252.655px" height="209.048px" viewBox="0 0 252.655 209.048" enable-background="new 0 0 252.655 209.048"
	 xml:space="preserve">
<g id="_1677080510912">
	<path fill="#00AFEF" d="M0,126.965v-23.086c5.131,0,8.979-1.274,11.543-1.274c1.283-1.274,3.848-3.856,5.131-6.404
		c2.564-2.583,3.848-6.421,3.848-10.261c1.282-2.582,1.282-8.986,1.282-16.682c0-11.552,0-20.521,1.282-25.651
		c1.283-5.13,3.848-8.969,6.413-11.552c2.565-3.839,7.695-5.13,12.825-7.678c3.848-1.292,10.261-1.292,19.239-1.292h5.13v23.086
		c-7.695,0-11.543,0-14.108,1.274c-2.565,0-3.848,1.291-3.848,3.856c-1.282,1.274-2.565,3.856-2.565,7.695
		c0,3.839,0,11.552,0,23.086c0,6.404-1.282,11.534-2.564,15.391c-1.283,3.856-3.848,7.695-5.131,10.26
		c-2.564,2.565-5.13,5.13-10.26,7.695c3.848,2.565,7.695,5.13,10.26,7.695c2.565,2.565,3.848,6.421,5.131,11.552
		c1.282,3.839,2.564,8.969,2.564,16.665c0,10.261,0,16.665,0,20.521c0,3.839,1.283,6.404,2.565,8.969
		c0,1.291,2.565,2.565,3.848,3.856c2.565,0,6.413,1.274,14.108,1.274v23.086h-5.13c-8.979,0-15.392-1.273-20.521-2.564
		c-3.848-1.274-7.695-3.84-11.543-6.405c-2.565-3.856-5.13-7.695-6.413-12.826c-1.282-3.856-1.282-11.552-1.282-21.795
		c0-11.551-1.282-19.247-1.282-23.103c-1.283-5.13-3.848-8.969-6.413-11.535C10.261,128.256,6.413,126.965,0,126.965z"/>
	<path fill="#00AFEF" d="M252.655,126.965v-23.086c-5.13,0-8.969-1.274-10.26-1.274c-2.565-1.274-5.131-3.856-6.422-6.404
		c-2.548-2.583-2.548-6.421-3.839-10.261c0-2.582-1.291-8.986-1.291-16.682c0-11.552,0-20.521-1.274-25.651
		c-1.273-5.13-2.565-8.969-6.404-11.552c-2.582-3.839-7.712-5.13-12.843-7.678c-3.839-1.292-10.243-1.292-19.229-1.292h-5.13v23.086
		c7.695,0,12.825,0,14.116,1.274c2.565,0,3.839,1.291,5.131,3.856c0,1.274,1.273,3.856,1.273,7.695c0,3.839,0,11.552,0,23.086
		c1.291,6.404,1.291,11.534,2.565,15.391c1.273,3.856,3.856,7.695,5.13,10.26c2.565,2.565,6.404,5.13,10.261,7.695
		c-3.856,2.565-6.404,5.13-8.986,7.695c-2.548,2.565-5.131,6.421-6.404,11.552c-1.274,3.839-1.274,8.969-2.565,16.665
		c0,10.261,0,16.665,0,20.521c0,3.839-1.273,6.404-1.273,8.969c-1.292,1.291-2.565,2.565-5.131,3.856
		c-2.565,0-6.421,1.274-14.116,1.274v23.086h5.13c8.986,0,15.391-1.273,20.521-2.564c5.131-1.274,8.97-3.84,11.552-6.405
		c3.839-3.856,5.131-7.695,6.404-12.826c1.274-3.856,1.274-11.552,1.274-21.795c0-11.551,1.291-19.247,2.582-23.103
		c1.273-5.13,2.548-8.969,6.404-11.535C242.396,128.256,246.234,126.965,252.655,126.965z"/>
	<polygon fill="#00AFEF" points="83.366,185.962 169.298,185.962 169.298,209.048 83.366,209.048 	"/>
	<polygon fill="#00AFEF" points="111.583,0 100.04,60.289 79.519,60.289 91.062,0 	"/>
	<polygon fill="#00AFEF" points="144.938,0 132.104,60.289 111.583,60.289 123.126,0 	"/>
	<polygon fill="#00AFEF" points="176.993,0 165.459,60.289 143.646,60.289 155.198,0 	"/>
	<path fill="#00AFEF" d="M93.627,98.749c8.978,0,16.673,7.712,16.673,16.682c0,10.261-7.695,16.665-16.673,16.665
		c-10.261,0-17.956-6.404-17.956-16.665C75.671,106.461,83.366,98.749,93.627,98.749z"/>
	<path fill="#00AFEF" d="M160.328,98.749c8.97,0,16.665,7.712,16.665,16.682c0,10.261-7.695,16.665-16.665,16.665
		c-8.986,0-16.682-6.404-16.682-16.665C143.646,106.461,151.342,98.749,160.328,98.749z"/>
</g>
</svg>